:SAMPLES-PER-SECOND 30
:FULLY-SPECIFIED
:DEGREES
185
root  50.7035 37.0413 21.2759 -175.524 20.271 179.746
RightUpLeg  -37.0155 -31.7638 -1.3099
RightLeg  26.4506 3.21467 1.50766
RightFoot  8.37969 -0.334142 2.25355
RightToes  0.000482159 0.542163 -0.142577
Spine  44.4258 -4.13311 9.20566
Spine1  10.2308 -0.430451 -0.879217
HEad  -12.7251 -6.40239 -2.97222
LeftShoulder1  10.2344 -18.5732 -40.0725
LeftArm  -12.1995 -29.0397 -37.5415
LeftForeArm  -0.982598 -27.7936 -6.04624
LeftHand  -0.25398 0.0180481 5.50724
RightShoulder  4.66722 11.431 25.1315
RightArm  -4.9021 47.676 42.2443
RightForeArm  4.34161 15.7338 6.41364
RightHand  -0.0998026 7.33455 -1.37417
LeftUpLeg  -33.7133 2.07947 8.50598
LeftLeg  56.6947 4.96225 8.59227
LeftFoot  -12.3263 0.0708666 -0.565192
LeftToes  1.06248e-005 4.65855e-005 -8.18498e-006
186
root  51.827 37.5149 21.5777 -173.244 18.1815 178.827
RightUpLeg  -38.9324 -33.4676 1.45154
RightLeg  24.6679 2.86941 1.21274
RightFoot  8.08255 -0.0443797 0.57951
RightToes  0.000482159 0.542163 -0.142577
Spine  46.7547 -4.46405 8.661
Spine1  10.1703 -0.891403 -0.766197
HEad  -15.7757 -6.24867 -3.12577
LeftShoulder1  10.0531 -19.3832 -37.7425
LeftArm  -12.948 -34.4287 -39.7049
LeftForeArm  -0.349013 -24.4081 -5.24702
LeftHand  -0.25398 0.0180481 5.50724
RightShoulder  4.43851 11.1936 24.0269
RightArm  -9.25572 50.506 39.813
RightForeArm  5.26787 15.4856 6.14521
RightHand  -0.123689 8.04762 -1.54605
LeftUpLeg  -36.9953 8.36124 2.27268
LeftLeg  50.4344 6.52641 8.80952
LeftFoot  -12.5786 0.0616988 -1.26892
LeftToes  1.06248e-005 4.65855e-005 -8.18498e-006
187
root  52.8611 37.8642 21.8237 -170.673 16.1898 177.926
RightUpLeg  -41.487 -34.9511 4.47568
RightLeg  23.1779 2.5215 0.96
RightFoot  7.47175 0.203673 -0.91714
RightToes  0.000482159 0.542163 -0.142577
Spine  48.6159 -4.78362 8.48799
Spine1  10.2151 -1.09741 -0.824052
HEad  -18.6 -6.24846 -2.95321
LeftShoulder1  9.76992 -20.4369 -34.6796
LeftArm  -14.1859 -38.9716 -42.4287
LeftForeArm  0.776799 -22.1338 -4.77719
LeftHand  -0.25398 0.0180481 5.50724
RightShoulder  4.17286 10.7715 23.0132
RightArm  -12.799 52.9764 36.1698
RightForeArm  4.32409 15.1765 6.13959
RightHand  -0.152473 8.88789 -1.73392
LeftUpLeg  -40.1381 14.9283 -5.47636
LeftLeg  42.7346 8.30011 8.54495
LeftFoot  -12.1976 0.0655084 -1.09078
LeftToes  1.06248e-005 4.65855e-005 -8.18498e-006
188
root  53.791 38.075 21.9866 -167.894 14.4416 177.495
RightUpLeg  -44.645 -36.1988 8.02498
RightLeg  22.3129 2.47775 0.896724
RightFoot  6.94155 0.296548 -1.54352
RightToes  0.000482159 0.542163 -0.142577
Spine  50.1436 -5.34713 8.87239
Spine1  9.95619 -1.25779 -0.931082
HEad  -21.0585 -5.91316 -3.29666
LeftShoulder1  9.64662 -21.4062 -32.5991
LeftArm  -15.793 -42.5313 -43.8773
LeftForeArm  2.14613 -21.3133 -4.62255
LeftHand  -0.25398 0.0180481 5.50724
RightShoulder  4.02004 10.7693 21.8802
RightArm  -16.4148 54.6813 31.8755
RightForeArm  2.52726 15.0981 6.1446
RightHand  -0.201595 9.66831 -2.06383
LeftUpLeg  -43.0828 20.9932 -13.6727
LeftLeg  34.402 8.16546 6.36699
LeftFoot  -11.0808 0.0780067 -2.4201
LeftToes  1.06248e-005 4.65855e-005 -8.18498e-006
189
root  54.6101 38.1647 22.0759 -165.282 13.1234 177.613
RightUpLeg  -47.9183 -36.9049 11.8076
RightLeg  22.2566 2.68051 0.986893
RightFoot  6.18968 0.316531 -1.7774
RightToes  0.000482159 0.542163 -0.142577
Spine  51.5304 -6.05935 9.71337
Spine1  10.0055 -1.12365 -1.3974
HEad  -23.2765 -5.48517 -4.07081
LeftShoulder1  9.5745 -22.3452 -30.8868
LeftArm  -17.6801 -45.6535 -44.7054
LeftForeArm  3.88428 -21.2271 -4.48042
LeftHand  -0.25398 0.0180481 5.50724
RightShoulder  3.8869 10.7882 20.8455
RightArm  -20.9236 56.1682 27.5358
RightForeArm  1.47804 15.1832 5.96582
RightHand  -0.236105 10.1491 -2.28229
LeftUpLeg  -45.4299 25.4972 -21.0989
LeftLeg  26.7039 6.121 3.68556
LeftFoot  -8.38986 0.0919317 -2.10355
LeftToes  1.06248e-005 4.65855e-005 -8.18498e-006
190
root  55.3495 38.1468 22.1303 -163.114 12.5385 177.852
RightUpLeg  -50.8775 -36.6155 15.014
RightLeg  23.0257 2.62286 1.00141
RightFoot  5.00693 0.397774 -2.53372
RightToes  0.000482159 0.542163 -0.142577
Spine  53.2631 -6.44607 9.90526
Spine1  10.3015 -0.875406 -1.66013
HEad  -25.2743 -4.58505 -5.13417
LeftShoulder1  9.47339 -22.7449 -29.9152
LeftArm  -19.2556 -48.8788 -44.8186
LeftForeArm  5.1817 -21.0629 -4.35508
LeftHand  -0.25398 0.0180481 5.50724
RightShoulder  3.76713 10.9545 19.6327
RightArm  -26.0527 57.8484 23.5387
RightForeArm  1.61493 14.8946 5.71446
RightHand  -0.227833 10.3728 -2.20018
LeftUpLeg  -47.1558 27.525 -26.1786
LeftLeg  21.473 4.39866 2.19114
LeftFoot  -5.06674 -0.176321 3.60719
LeftToes  1.06248e-005 4.65855e-005 -8.18498e-006
